<mxfile host="65bd71144e">
    <diagram id="70_ef3hdMhA2QYpEDX0g" name="Page-1">
        <mxGraphModel dx="1679" dy="500" grid="1" gridSize="10" guides="1" tooltips="1" connect="1" arrows="1" fold="1" page="1" pageScale="1" pageWidth="850" pageHeight="1100" math="0" shadow="0">
            <root>
                <mxCell id="0"/>
                <mxCell id="1" parent="0"/>
                <mxCell id="2" value="&lt;span style=&quot;background-color: rgb(0, 0, 204);&quot;&gt;Users&lt;/span&gt;" style="swimlane;fontStyle=0;childLayout=stackLayout;horizontal=1;startSize=30;horizontalStack=0;resizeParent=1;resizeParentMax=0;resizeLast=0;collapsible=1;marginBottom=0;whiteSpace=wrap;html=1;noLabel=0;direction=east;portConstraintRotation=0;connectable=1;fixDash=0;backgroundOutline=0;comic=0;swimlaneFillColor=#333333;fontSize=14;align=center;labelBackgroundColor=#003366;fillColor=#0050ef;fontColor=#ffffff;strokeColor=#001DBC;" parent="1" vertex="1">
                    <mxGeometry x="-810" y="140" width="210" height="210" as="geometry"/>
                </mxCell>
                <mxCell id="3" value="id&lt;span style=&quot;white-space: pre; font-size: 14px;&quot;&gt;&#9;&lt;/span&gt;&lt;span style=&quot;white-space: pre; font-size: 14px;&quot;&gt;&#9;&lt;span style=&quot;white-space: pre; font-size: 14px;&quot;&gt;&#9;&lt;/span&gt;&lt;span style=&quot;white-space: pre; font-size: 14px;&quot;&gt;&#9;&lt;/span&gt;&lt;/span&gt;&lt;i style=&quot;&quot;&gt;&lt;font style=&quot;font-size: 12px;&quot;&gt;int NN AI&lt;/font&gt;&lt;/i&gt;" style="text;strokeColor=none;fillColor=none;align=center;verticalAlign=middle;spacingLeft=4;spacingRight=4;overflow=hidden;points=[[0,0.5],[1,0.5]];portConstraint=eastwest;rotatable=0;whiteSpace=wrap;html=1;noLabel=0;direction=east;portConstraintRotation=0;connectable=1;fixDash=0;backgroundOutline=0;comic=0;swimlaneFillColor=#1A1A1A;fontSize=14;" parent="2" vertex="1">
                    <mxGeometry y="30" width="210" height="30" as="geometry"/>
                </mxCell>
                <mxCell id="4" value="User name&amp;nbsp;&lt;span style=&quot;white-space: pre; font-size: 14px;&quot;&gt;&#9;&lt;/span&gt;&amp;nbsp; &amp;nbsp; &amp;nbsp; &amp;nbsp; &amp;nbsp; &amp;nbsp;&lt;i style=&quot;font-size: 13px;&quot;&gt;String&lt;span style=&quot;white-space: pre;&quot;&gt;&#9;&lt;/span&gt;&lt;/i&gt;" style="text;strokeColor=none;fillColor=none;align=center;verticalAlign=middle;spacingLeft=4;spacingRight=4;overflow=hidden;points=[[0,0.5],[1,0.5]];portConstraint=eastwest;rotatable=0;whiteSpace=wrap;html=1;noLabel=0;direction=east;portConstraintRotation=0;connectable=1;fixDash=0;backgroundOutline=0;comic=0;swimlaneFillColor=#1A1A1A;fontSize=14;" parent="2" vertex="1">
                    <mxGeometry y="60" width="210" height="30" as="geometry"/>
                </mxCell>
                <mxCell id="5" value="Email&lt;span style=&quot;white-space: pre; font-size: 14px;&quot;&gt;&#9;&lt;/span&gt;&lt;span style=&quot;white-space: pre; font-size: 14px;&quot;&gt;&#9;&lt;/span&gt;&lt;span style=&quot;white-space: pre; font-size: 14px;&quot;&gt;&#9;&lt;/span&gt;&amp;nbsp; &amp;nbsp; &amp;nbsp; &lt;i style=&quot;&quot;&gt;&lt;font style=&quot;font-size: 13px;&quot;&gt;String&lt;/font&gt;&lt;/i&gt;" style="text;strokeColor=none;fillColor=none;align=center;verticalAlign=middle;spacingLeft=4;spacingRight=4;overflow=hidden;points=[[0,0.5],[1,0.5]];portConstraint=eastwest;rotatable=0;whiteSpace=wrap;html=1;noLabel=0;direction=east;portConstraintRotation=0;connectable=1;fixDash=0;backgroundOutline=0;comic=0;swimlaneFillColor=#1A1A1A;fontSize=14;" parent="2" vertex="1">
                    <mxGeometry y="90" width="210" height="30" as="geometry"/>
                </mxCell>
                <mxCell id="9" value="Password&lt;span style=&quot;font-size: 14px;&quot;&gt;&amp;nbsp; &amp;nbsp; &amp;nbsp; &amp;nbsp; &amp;nbsp; &amp;nbsp; &amp;nbsp; &amp;nbsp; &amp;nbsp; &amp;nbsp; &amp;nbsp;&amp;nbsp;&lt;/span&gt;&lt;i style=&quot;&quot;&gt;&lt;font style=&quot;font-size: 13px;&quot;&gt;String&lt;/font&gt;&lt;/i&gt;" style="text;strokeColor=none;fillColor=none;align=center;verticalAlign=middle;spacingLeft=4;spacingRight=4;overflow=hidden;points=[[0,0.5],[1,0.5]];portConstraint=eastwest;rotatable=0;whiteSpace=wrap;html=1;noLabel=0;direction=east;portConstraintRotation=0;connectable=1;fixDash=0;backgroundOutline=0;comic=0;swimlaneFillColor=#1A1A1A;fontSize=14;" parent="2" vertex="1">
                    <mxGeometry y="120" width="210" height="30" as="geometry"/>
                </mxCell>
                <mxCell id="8" value="Number&lt;span style=&quot;font-size: 14px;&quot;&gt;&amp;nbsp; &amp;nbsp; &amp;nbsp; &amp;nbsp; &amp;nbsp; &amp;nbsp; &amp;nbsp; &amp;nbsp; &amp;nbsp; &amp;nbsp; &amp;nbsp; &amp;nbsp; &amp;nbsp;&lt;/span&gt;&lt;i style=&quot;&quot;&gt;&lt;font style=&quot;font-size: 13px;&quot;&gt;String&lt;/font&gt;&lt;/i&gt;" style="text;strokeColor=none;fillColor=none;align=center;verticalAlign=middle;spacingLeft=4;spacingRight=4;overflow=hidden;points=[[0,0.5],[1,0.5]];portConstraint=eastwest;rotatable=0;whiteSpace=wrap;html=1;noLabel=0;direction=east;portConstraintRotation=0;connectable=1;fixDash=0;backgroundOutline=0;comic=0;swimlaneFillColor=#1A1A1A;fontSize=14;" parent="2" vertex="1">
                    <mxGeometry y="150" width="210" height="30" as="geometry"/>
                </mxCell>
                <mxCell id="7" value="User-Type&lt;span style=&quot;white-space: pre; font-size: 14px;&quot;&gt;&#9;&lt;/span&gt;&amp;nbsp; &amp;nbsp; &amp;nbsp; &amp;nbsp; &amp;nbsp; &amp;nbsp; &amp;nbsp; &lt;i style=&quot;&quot;&gt;&lt;font style=&quot;font-size: 13px;&quot;&gt;enum&lt;/font&gt;&lt;/i&gt;" style="text;strokeColor=none;fillColor=none;align=center;verticalAlign=middle;spacingLeft=4;spacingRight=4;overflow=hidden;points=[[0,0.5],[1,0.5]];portConstraint=eastwest;rotatable=0;whiteSpace=wrap;html=1;noLabel=0;direction=east;portConstraintRotation=0;connectable=1;fixDash=0;backgroundOutline=0;comic=0;swimlaneFillColor=#1A1A1A;fontSize=14;" parent="2" vertex="1">
                    <mxGeometry y="180" width="210" height="30" as="geometry"/>
                </mxCell>
                <mxCell id="12" value="City" style="swimlane;fontStyle=0;childLayout=stackLayout;horizontal=1;startSize=30;horizontalStack=0;resizeParent=1;resizeParentMax=0;resizeLast=0;collapsible=1;marginBottom=0;whiteSpace=wrap;html=1;labelBackgroundColor=none;comic=0;strokeColor=none;fontSize=16;align=center;fillColor=#0050ef;fontColor=#ffffff;swimlaneFillColor=#333333;" parent="1" vertex="1">
                    <mxGeometry x="-500" y="140" width="220" height="90" as="geometry"/>
                </mxCell>
                <mxCell id="13" value="&lt;div style=&quot;text-align: left;&quot;&gt;&lt;span style=&quot;background-color: initial;&quot;&gt;ID&lt;/span&gt;&lt;span style=&quot;background-color: initial; white-space: pre;&quot;&gt;&#9;&lt;/span&gt;&lt;span style=&quot;background-color: initial; white-space: pre;&quot;&gt;&#9;&lt;/span&gt;&lt;span style=&quot;background-color: initial;&quot;&gt;&amp;nbsp; &amp;nbsp; &amp;nbsp; &amp;nbsp; &amp;nbsp; &amp;nbsp; &amp;nbsp; &amp;nbsp;&lt;/span&gt;&lt;font style=&quot;background-color: initial; font-size: 12px;&quot;&gt;&lt;i&gt;INT, AI , NN&lt;/i&gt;&lt;/font&gt;&lt;font style=&quot;background-color: initial;&quot;&gt;&amp;nbsp;&lt;/font&gt;&lt;/div&gt;" style="text;strokeColor=none;fillColor=none;align=center;verticalAlign=middle;spacingLeft=4;spacingRight=4;overflow=hidden;points=[[0,0.5],[1,0.5]];portConstraint=eastwest;rotatable=0;whiteSpace=wrap;html=1;labelBackgroundColor=none;comic=0;fontSize=15;" parent="12" vertex="1">
                    <mxGeometry y="30" width="220" height="30" as="geometry"/>
                </mxCell>
                <mxCell id="14" value="CityName&amp;nbsp; &amp;nbsp; &amp;nbsp; &amp;nbsp; &amp;nbsp; &amp;nbsp; &amp;nbsp; &amp;nbsp; &amp;nbsp; &amp;nbsp; &amp;nbsp; &amp;nbsp;&lt;i&gt;string&lt;/i&gt;" style="text;strokeColor=none;fillColor=none;align=center;verticalAlign=middle;spacingLeft=4;spacingRight=4;overflow=hidden;points=[[0,0.5],[1,0.5]];portConstraint=eastwest;rotatable=0;whiteSpace=wrap;html=1;labelBackgroundColor=none;comic=0;fontSize=15;" parent="12" vertex="1">
                    <mxGeometry y="60" width="220" height="30" as="geometry"/>
                </mxCell>
            </root>
        </mxGraphModel>
    </diagram>
</mxfile>